# Blender v2.93.1 OBJ File: 'tradepost_block.blend'
# www.blender.org
mtllib tradepost_block_mbr.mtl
o obj_middle_back_right_Cube.069
v 1.000000 1.000000 0.729527
v 0.270473 1.000000 0.729528
v 0.062500 1.000000 0.937500
v 0.270473 1.000000 0.000000
v 0.250000 1.000000 0.750000
v 0.250000 1.000000 0.000000
v 1.000000 1.000000 0.750000
v 1.000000 0.000000 0.875000
v 0.125000 0.000000 0.875000
v 0.125000 0.000000 0.000000
v 0.148520 0.000000 0.000000
v 1.000000 0.000000 0.851480
v 0.148520 0.000000 0.851481
v 1.000000 1.000000 0.937500
v 0.062500 1.000000 -0.000000
v 1.000000 1.000000 0.000000
vt 0.000000 0.000000
vt 0.000000 0.000000
vt 0.000000 0.000000
vt 0.000000 0.000000
vt 0.000000 0.000000
vt 0.064160 0.312500
vt 0.000000 0.000000
vt 0.125000 0.251660
vt 0.064160 0.251660
vt 0.625000 0.250000
vt 0.500000 0.375000
vt 0.500000 0.250000
vt 0.625000 0.125000
vt 0.625000 0.250000
vt 0.000000 0.000000
vt 0.625000 0.375000
vt 0.625000 0.375000
vt 0.625000 0.125000
vt 0.500000 0.125000
vn 0.0000 -1.0000 0.0000
vn 0.0000 -0.1211 -0.9926
vn 0.9926 -0.1211 0.0000
vn -0.9923 0.1240 0.0000
vn 0.0000 0.1240 0.9923
usemtl Blue_cloth
s off
f 2/1/1 6/2/1 4/3/1
f 2/1/1 7/4/1 5/5/1
f 12/6/2 2/1/2 1/7/2
f 11/8/3 2/1/3 13/9/3
f 5/10/4 10/11/4 9/12/4
f 5/10/1 14/13/1 3/14/1
f 2/1/1 16/15/1 1/7/1
f 2/1/1 5/5/1 6/2/1
f 2/1/1 1/7/1 7/4/1
f 12/6/2 13/9/2 2/1/2
f 11/8/3 4/3/3 2/1/3
f 5/10/4 6/16/4 10/11/4
f 15/17/1 6/16/1 5/10/1
f 5/10/1 7/18/1 14/13/1
f 3/14/1 15/17/1 5/10/1
f 2/1/1 4/3/1 16/15/1
usemtl White_cloth
f 5/10/5 8/19/5 7/18/5
f 5/10/5 9/12/5 8/19/5
