# Blender v2.93.1 OBJ File: 'tradepost_block.blend'
# www.blender.org
mtllib tradepost_block_ubr.mtl
o obj_upper_back_right_Cube.076
v 1.000000 0.000000 0.729527
v 0.270473 0.000000 0.729528
v 0.062500 0.000000 0.937500
v 0.270473 0.000000 0.000000
v 1.000000 0.083333 0.937500
v 0.062500 0.083333 0.937500
v 1.000000 0.993176 0.000000
v 0.062500 0.083333 0.000000
v 0.250000 0.000000 0.750000
v 0.250000 0.000000 0.000000
v 1.000000 0.000000 0.750000
v 1.000000 0.000000 0.937500
v 0.062500 0.000000 -0.000000
v 1.000000 0.000000 0.000000
vt 0.625000 0.250000
vt 0.625000 0.375000
vt 0.625000 0.375000
vt 0.625000 0.250000
vt 0.625000 0.125000
vt 0.625000 0.250000
vt 0.000000 0.000000
vt 0.000000 0.000000
vt 0.000000 0.000000
vt 0.000000 0.000000
vt 0.000000 0.000000
vt 0.625000 0.250000
vt 0.625000 0.125000
vt 0.000000 0.000000
vt 0.000000 0.000000
vt 0.625000 0.375000
vt 0.625000 0.125000
vt 0.625000 0.500000
vn -1.0000 -0.0000 0.0000
vn 0.0000 0.7176 0.6964
vn 0.0000 -1.0000 0.0000
vn 0.0000 0.0000 1.0000
vn -0.6964 0.7176 0.0000
usemtl Blue_cloth
s off
f 3/1/1 8/2/1 13/3/1
f 6/4/2 5/5/2 7/6/2
f 2/7/3 10/8/3 4/9/3
f 2/7/3 11/10/3 9/11/3
f 9/12/3 12/13/3 3/1/3
f 12/13/4 6/4/4 3/1/4
f 2/7/3 14/14/3 1/15/3
f 3/1/1 6/4/1 8/2/1
f 2/7/3 9/11/3 10/8/3
f 2/7/3 1/15/3 11/10/3
f 13/3/3 10/16/3 9/12/3
f 9/12/3 11/17/3 12/13/3
f 3/1/3 13/3/3 9/12/3
f 12/13/4 5/5/4 6/4/4
f 2/7/3 4/9/3 14/14/3
usemtl White_cloth
f 8/2/5 6/4/5 7/18/5
