# Blender v2.93.1 OBJ File: 'tradepost_block.blend'
# www.blender.org
mtllib tradepost_block_ubl.mtl
o obj_upper_back_left_Cube.067
v 0.729527 0.000000 -0.000000
v 0.000000 0.000000 0.729527
v 0.729528 0.000000 0.729527
v 0.937500 0.000000 0.937500
v 0.937500 0.083333 0.937500
v 0.937500 0.083333 -0.000000
v 0.000000 0.083333 0.937500
v 0.000000 0.993176 0.000000
v 0.750000 0.000000 -0.000000
v 0.750000 0.000000 0.750000
v 0.000000 0.000000 0.750000
v -0.000000 0.000000 0.937500
v 0.937500 0.000000 0.000000
v -0.000000 0.000000 0.000000
vt 0.625000 1.000000
vt 0.625000 0.875000
vt 0.625000 1.000000
vt 0.625000 0.000000
vt 0.625000 0.125000
vt 0.625000 0.125000
vt 0.625000 0.875000
vt 0.625000 1.000000
vt 0.000000 0.000000
vt 0.000000 0.000000
vt 0.000000 0.000000
vt 0.000000 0.000000
vt 0.000000 0.000000
vt 0.000000 0.000000
vt 0.625000 1.000000
vt 0.625000 0.375000
vt 0.625000 0.000000
vt 0.000000 0.000000
vt 0.625000 0.125000
vt 0.625000 0.875000
vt 0.625000 0.250000
vn 0.6964 0.7176 -0.0000
vn 0.0000 -0.0000 1.0000
vn 1.0000 0.0000 -0.0000
vn 0.0000 -1.0000 0.0000
vn 0.0000 0.7176 0.6964
usemtl Blue_cloth
s off
f 5/1/1 6/2/1 8/3/1
f 4/4/2 7/5/2 12/6/2
f 13/7/3 5/1/3 4/8/3
f 3/9/4 9/10/4 10/11/4
f 3/9/4 11/12/4 2/13/4
f 2/13/4 1/14/4 3/9/4
f 10/15/4 13/16/4 4/4/4
f 4/4/2 5/17/2 7/5/2
f 13/7/3 6/2/3 5/1/3
f 3/9/4 1/14/4 9/10/4
f 3/9/4 10/11/4 11/12/4
f 2/13/4 14/18/4 1/14/4
f 4/4/4 12/6/4 10/15/4
f 12/6/4 11/19/4 10/15/4
f 10/15/4 9/20/4 13/16/4
usemtl White_cloth
f 7/5/5 5/17/5 8/21/5
