# Blender v2.93.1 OBJ File: 'tradepost_block.blend'
# www.blender.org
mtllib tradepost_block_mfl.mtl
o obj_middle_front_left_Cube.066
v 0.729527 1.000000 1.000000
v 0.729527 1.000000 0.270472
v 0.269830 0.524086 0.190511
v -0.000000 1.000000 0.270473
v -0.000000 0.524086 0.190511
v 0.937500 1.000000 0.062500
v 0.250000 1.000000 0.270473
v 0.750000 1.000000 1.000000
v 0.250000 1.000000 0.250000
v 0.750000 1.000000 0.250000
v -0.000000 1.000000 0.250000
v 0.291667 0.000000 0.125000
v 0.875000 0.000000 1.000000
v 0.875000 0.000000 0.125000
v 0.851480 0.000000 0.148519
v 0.291667 0.000000 0.148520
v 0.851480 0.000000 1.000000
v 0.000000 1.000000 0.062500
v 0.937500 1.000000 1.000000
v -0.000000 1.000000 1.000000
vt 0.625000 0.375000
vt 0.625000 0.750000
vt 0.625000 0.750000
vt 0.000000 0.000000
vt 0.000000 0.000000
vt 0.000000 0.000000
vt 0.000000 0.000000
vt 0.000000 0.000000
vt 0.000000 0.000000
vt 0.000000 0.000000
vt 0.185840 0.333333
vt 0.125000 0.373340
vt 0.185840 0.373340
vt 0.000000 0.000000
vt 0.500000 0.875000
vt 0.500000 0.750000
vt 0.000000 0.000000
vt 0.000000 0.000000
vt 0.000000 0.000000
vt 0.625000 0.666667
vt 0.625000 0.625000
vt 0.625000 0.875000
vt 0.000000 0.000000
vt 0.000000 0.000000
vt 0.625000 0.625000
vt 0.565511 0.625000
vt 0.565511 0.666667
vt 0.500000 0.666667
vn 0.0000 -1.0000 0.0000
vn 0.0000 -0.1211 0.9926
vn -0.9926 -0.1211 0.0000
vn 0.0000 -0.1657 0.9862
vn 0.9923 0.1240 -0.0000
vn -0.9991 -0.0416 -0.0000
vn 0.0000 0.1240 -0.9923
usemtl Blue_cloth
s off
f 19/1/1 10/2/1 6/3/1
f 2/4/1 9/5/1 10/6/1
f 4/7/1 9/5/1 7/8/1
f 2/4/1 8/9/1 1/10/1
f 16/11/2 2/4/2 7/8/2
f 17/12/3 2/4/3 15/13/3
f 5/14/4 7/8/4 4/7/4
f 10/2/5 13/15/5 14/16/5
f 3/17/6 16/18/6 7/8/6
f 20/19/1 4/7/1 7/8/1
f 6/3/1 9/20/1 18/21/1
f 19/1/1 8/22/1 10/2/1
f 2/4/1 7/8/1 9/5/1
f 4/7/1 11/23/1 9/5/1
f 2/4/1 10/6/1 8/9/1
f 16/11/2 15/13/2 2/4/2
f 17/12/3 1/10/3 2/4/3
f 5/14/4 3/17/4 7/8/4
f 10/2/5 8/22/5 13/15/5
f 3/17/6 12/24/6 16/18/6
f 2/4/1 1/10/1 7/8/1
f 1/10/1 20/19/1 7/8/1
f 10/2/1 9/20/1 6/3/1
f 9/20/1 11/25/1 18/21/1
usemtl White_cloth
f 5/26/7 9/20/7 3/27/7
f 14/16/7 12/28/7 3/27/7
f 5/26/7 11/25/7 9/20/7
f 3/27/7 9/20/7 10/2/7
f 10/2/7 14/16/7 3/27/7
