# Blender v2.93.1 OBJ File: 'tradepost_block.blend'
# www.blender.org
mtllib tradepost_block_mfr.mtl
o obj_middle_front_right_Cube.074
v 0.270473 1.000000 1.000000
v 1.000000 1.000000 0.270473
v 1.000000 0.524086 0.190511
v 0.270472 1.000000 0.270473
v 0.750000 1.000000 0.270473
v 0.730170 0.524086 0.190511
v 0.062500 1.000000 0.062500
v 0.250000 1.000000 1.000000
v 0.250000 1.000000 0.250000
v 0.750000 1.000000 0.250000
v 1.000000 1.000000 0.250000
v 0.708333 0.000000 0.125000
v 0.125000 0.000000 1.000000
v 0.125000 0.000000 0.125000
v 0.148519 0.000000 0.148520
v 0.148520 0.000000 1.000000
v 0.708333 0.000000 0.148520
v 1.000000 1.000000 0.062500
v 0.062500 1.000000 1.000000
v 1.000000 1.000000 1.000000
vt 0.625000 0.500000
vt 0.625000 0.583333
vt 0.565511 0.583333
vt 0.565511 0.625000
vt 0.625000 0.500000
vt 0.625000 0.625000
vt 0.000000 0.000000
vt 0.000000 0.000000
vt 0.000000 0.000000
vt 0.000000 0.000000
vt 0.000000 0.000000
vt 0.000000 0.000000
vt 0.000000 0.000000
vt 0.000000 0.000000
vt 0.125000 0.251660
vt 0.185840 0.291667
vt 0.185840 0.251660
vt 0.000000 0.000000
vt 0.000000 0.000000
vt 0.000000 0.000000
vt 0.000000 0.000000
vt 0.625000 0.375000
vt 0.500000 0.583333
vt 0.500000 0.500000
vt 0.625000 0.625000
vt 0.000000 0.000000
vt 0.625000 0.375000
vt 0.500000 0.375000
vn -0.0000 0.1240 -0.9923
vn 0.0000 -1.0000 0.0000
vn 0.9926 -0.1211 -0.0000
vn 0.0000 -0.1211 0.9926
vn 0.0000 -0.1657 0.9862
vn 0.9991 -0.0416 0.0000
vn -0.9923 0.1240 0.0000
usemtl Blue_cloth
s off
f 9/1/1 10/2/1 6/3/1
f 10/2/1 3/4/1 6/3/1
f 10/2/2 7/5/2 18/6/2
f 1/7/2 4/8/2 5/9/2
f 4/8/2 10/10/2 5/9/2
f 4/8/2 8/11/2 9/12/2
f 5/9/2 11/13/2 2/14/2
f 16/15/3 4/8/3 1/7/3
f 17/16/4 4/8/4 15/17/4
f 5/9/5 3/18/5 2/14/5
f 6/19/6 17/20/6 12/21/6
f 9/1/2 19/22/2 7/5/2
f 12/23/1 14/24/1 6/3/1
f 14/24/1 9/1/1 6/3/1
f 10/2/1 11/25/1 3/4/1
f 18/6/2 11/25/2 10/2/2
f 10/2/2 9/1/2 7/5/2
f 2/14/2 20/26/2 5/9/2
f 20/26/2 1/7/2 5/9/2
f 4/8/2 9/12/2 10/10/2
f 4/8/2 1/7/2 8/11/2
f 5/9/2 10/10/2 11/13/2
f 16/15/3 15/17/3 4/8/3
f 17/16/4 5/9/4 4/8/4
f 5/9/5 6/19/5 3/18/5
f 6/19/6 5/9/6 17/20/6
f 9/1/2 8/27/2 19/22/2
usemtl White_cloth
f 13/28/7 9/1/7 14/24/7
f 13/28/7 8/27/7 9/1/7
