# Blender v2.93.1 OBJ File: 'tradepost_block.blend'
# www.blender.org
mtllib tradepost_block_lbl.mtl
o obj_lower_back_left_Cube.071
v 0.973434 0.000000 0.973433
v 0.973434 0.000000 -0.000000
v 0.000000 0.000000 0.973434
v 0.000000 0.000000 1.000000
v 1.000000 0.000000 1.000000
v 1.000000 0.000000 -0.000000
v 0.875000 1.000000 0.875000
v 0.875000 1.000000 -0.000000
v 0.000000 1.000000 0.875000
v 0.851480 1.000000 -0.000000
v 0.851481 1.000000 0.851480
v 0.000000 1.000000 0.851480
vt 0.128321 0.746679
vt 0.125000 0.625000
vt 0.128321 0.625000
vt 0.250000 0.750000
vt 0.125000 0.750000
vt 0.064160 0.373340
vt 0.250000 0.746679
vt 0.125000 0.373340
vt 0.375000 0.125000
vt 0.500000 0.000000
vt 0.500000 0.125000
vt 0.064160 0.312500
vt 0.375000 0.000000
vt 0.375000 0.875000
vt 0.500000 1.000000
vt 0.375000 1.000000
vt 0.500000 0.875000
vn 0.0000 -1.0000 0.0000
vn 0.0000 -0.1211 -0.9926
vn -0.9926 -0.1211 0.0000
vn 0.0000 0.1240 0.9923
vn 0.9923 0.1240 0.0000
usemtl Blue_cloth
s off
f 1/1/1 4/2/1 3/3/1
f 1/1/1 6/4/1 5/5/1
f 3/3/2 11/6/2 1/1/2
f 2/7/3 11/6/3 10/8/3
f 4/9/4 7/10/4 9/11/4
f 1/1/1 5/5/1 4/2/1
f 1/1/1 2/7/1 6/4/1
f 3/3/2 12/12/2 11/6/2
f 2/7/3 1/1/3 11/6/3
f 4/9/4 5/13/4 7/10/4
usemtl White_cloth
f 6/14/5 7/15/5 5/16/5
f 6/14/5 8/17/5 7/15/5
