# Blender v2.93.1 OBJ File: 'tradepost_block.blend'
# www.blender.org
mtllib tradepost_block_ufl.mtl
o obj_upper_front_left_Cube.075
v 0.729527 0.000000 1.000000
v 0.729527 0.000000 0.270472
v -0.000000 0.000000 0.270473
v 0.937500 0.083333 1.000000
v 0.000000 0.993176 1.000000
v 0.937500 0.000000 0.062500
v 0.937500 0.083333 0.062500
v 0.250000 0.000000 0.270473
v -0.000000 0.083333 0.062500
v 0.750000 0.000000 1.000000
v 0.250000 0.000000 0.250000
v 0.750000 0.000000 0.250000
v -0.000000 0.000000 0.250000
v 0.000000 0.000000 0.062500
v 0.937500 0.000000 1.000000
v -0.000000 0.000000 1.000000
vt 0.625000 0.625000
vt 0.625000 0.750000
vt 0.625000 0.750000
vt 0.625000 0.375000
vt 0.625000 0.750000
vt 0.625000 0.625000
vt 0.625000 0.750000
vt 0.000000 0.000000
vt 0.000000 0.000000
vt 0.000000 0.000000
vt 0.000000 0.000000
vt 0.000000 0.000000
vt 0.000000 0.000000
vt 0.000000 0.000000
vt 0.000000 0.000000
vt 0.625000 0.666667
vt 0.625000 0.875000
vt 0.625000 0.875000
vt 0.000000 0.000000
vt 0.625000 0.625000
vt 0.625000 0.875000
vt 0.625000 1.000000
vn -0.0000 0.0000 -1.0000
vn 0.0000 -1.0000 0.0000
vn 0.0000 0.7176 -0.6964
vn 1.0000 0.0000 -0.0000
vn 0.6964 0.7176 0.0000
usemtl Blue_cloth
s off
f 14/1/1 7/2/1 6/3/1
f 15/4/2 12/5/2 6/3/2
f 7/2/3 9/6/3 5/7/3
f 2/8/2 11/9/2 12/10/2
f 3/11/2 11/9/2 8/12/2
f 2/8/2 10/13/2 1/14/2
f 16/15/2 3/11/2 8/12/2
f 6/3/2 11/16/2 14/1/2
f 7/2/4 15/17/4 6/3/4
f 14/1/1 9/6/1 7/2/1
f 15/4/2 10/18/2 12/5/2
f 2/8/2 8/12/2 11/9/2
f 3/11/2 13/19/2 11/9/2
f 2/8/2 12/10/2 10/13/2
f 2/8/2 1/14/2 8/12/2
f 1/14/2 16/15/2 8/12/2
f 12/5/2 11/16/2 6/3/2
f 11/16/2 13/20/2 14/1/2
f 7/2/4 4/21/4 15/17/4
usemtl White_cloth
f 4/21/5 7/2/5 5/22/5
