# Blender v2.93.1 OBJ File: 'tradepost_block.blend'
# www.blender.org
mtllib tradepost_block_ufr.mtl
o obj_upper_front_right_Cube.070
v 0.270473 0.000000 1.000000
v 1.000000 0.000000 0.270473
v 0.270472 0.000000 0.270473
v 0.750000 0.000000 0.270473
v 1.000000 0.993176 1.000000
v 1.000000 0.083333 0.062500
v 0.062500 0.000000 0.062500
v 0.062500 0.083333 0.062500
v 0.062500 0.083333 1.000000
v 0.250000 0.000000 1.000000
v 0.250000 0.000000 0.250000
v 0.750000 0.000000 0.250000
v 1.000000 0.000000 0.250000
v 1.000000 0.000000 0.062500
v 0.062500 0.000000 1.000000
v 1.000000 0.000000 1.000000
vt 0.625000 0.500000
vt 0.625000 0.375000
vt 0.625000 0.500000
vt 0.625000 0.583333
vt 0.625000 0.500000
vt 0.625000 0.625000
vt 0.000000 0.000000
vt 0.000000 0.000000
vt 0.000000 0.000000
vt 0.000000 0.000000
vt 0.000000 0.000000
vt 0.000000 0.000000
vt 0.000000 0.000000
vt 0.000000 0.000000
vt 0.625000 0.375000
vt 0.625000 0.500000
vt 0.625000 0.625000
vt 0.000000 0.000000
vt 0.625000 0.625000
vt 0.625000 0.375000
vt 0.625000 0.750000
vn -0.6964 0.7176 0.0000
vn 0.0000 -1.0000 0.0000
vn -0.0000 0.0000 -1.0000
vn -1.0000 0.0000 0.0000
vn 0.0000 0.7176 -0.6964
usemtl Blue_cloth
s off
f 8/1/1 9/2/1 5/3/1
f 12/4/2 7/5/2 14/6/2
f 1/7/2 3/8/2 4/9/2
f 3/8/2 12/10/2 4/9/2
f 3/8/2 10/11/2 11/12/2
f 4/9/2 13/13/2 2/14/2
f 8/1/3 14/6/3 7/5/3
f 15/15/4 8/1/4 7/5/4
f 11/16/2 15/15/2 7/5/2
f 14/6/2 13/17/2 12/4/2
f 12/4/2 11/16/2 7/5/2
f 2/14/2 16/18/2 4/9/2
f 16/18/2 1/7/2 4/9/2
f 3/8/2 11/12/2 12/10/2
f 3/8/2 1/7/2 10/11/2
f 4/9/2 12/10/2 13/13/2
f 8/1/3 6/19/3 14/6/3
f 15/15/4 9/2/4 8/1/4
f 11/16/2 10/20/2 15/15/2
usemtl White_cloth
f 6/19/5 8/1/5 5/21/5
