# Blender v2.93.1 OBJ File: 'tradepost_block.blend'
# www.blender.org
mtllib tradepost_block_mbl.mtl
o obj_middle_back_left._Cube.073
v 0.729527 1.000000 -0.000000
v 0.000000 1.000000 0.729527
v 0.729528 1.000000 0.729527
v 0.937500 1.000000 0.937500
v 0.750000 1.000000 -0.000000
v 0.750000 1.000000 0.750000
v 0.000000 1.000000 0.750000
v 0.875000 0.000000 0.875000
v 0.875000 0.000000 -0.000000
v 0.000000 0.000000 0.875000
v 0.851480 0.000000 -0.000000
v 0.851481 0.000000 0.851480
v 0.000000 0.000000 0.851480
v -0.000000 1.000000 0.937500
v 0.937500 1.000000 0.000000
v -0.000000 1.000000 0.000000
vt 0.500000 0.125000
vt 0.625000 0.000000
vt 0.625000 0.125000
vt 0.000000 0.000000
vt 0.000000 0.000000
vt 0.000000 0.000000
vt 0.000000 0.000000
vt 0.000000 0.000000
vt 0.125000 0.373340
vt 0.000000 0.000000
vt 0.064160 0.312500
vt 0.064160 0.373340
vt 0.625000 1.000000
vt 0.625000 0.375000
vt 0.625000 0.000000
vt 0.500000 0.000000
vt 0.000000 0.000000
vt 0.625000 0.125000
vt 0.625000 0.875000
vt 0.500000 0.875000
vt 0.500000 1.000000
vn 0.0000 0.1240 0.9923
vn 0.0000 -1.0000 0.0000
vn -0.9926 -0.1211 0.0000
vn 0.0000 -0.1211 -0.9926
vn 0.9923 0.1240 0.0000
usemtl Blue_cloth
s off
f 10/1/1 6/2/1 7/3/1
f 3/4/2 5/5/2 6/6/2
f 3/4/2 7/7/2 2/8/2
f 11/9/3 3/4/3 1/10/3
f 13/11/4 3/4/4 12/12/4
f 2/8/2 1/10/2 3/4/2
f 6/13/2 15/14/2 4/15/2
f 10/1/1 8/16/1 6/2/1
f 3/4/2 1/10/2 5/5/2
f 3/4/2 6/6/2 7/7/2
f 11/9/3 12/12/3 3/4/3
f 13/11/4 2/8/4 3/4/4
f 2/8/2 16/17/2 1/10/2
f 4/15/2 14/18/2 6/13/2
f 14/18/2 7/3/2 6/13/2
f 6/13/2 5/19/2 15/14/2
usemtl White_cloth
f 9/20/5 6/13/5 8/21/5
f 9/20/5 5/19/5 6/13/5
